<?xml version="1.0" standalone="no"?>
<!DOCTYPE svg PUBLIC "-//W3C//DTD SVG 20010904//EN"
 "http://www.w3.org/TR/2001/REC-SVG-20010904/DTD/svg10.dtd">
<svg version="1.0" xmlns="http://www.w3.org/2000/svg"
 width="512.000000pt" height="512.000000pt" viewBox="0 0 512.000000 512.000000"
 preserveAspectRatio="xMidYMid meet">
<metadata>
Created by potrace 1.14, written by Peter Selinger 2001-2017
</metadata>
<g transform="translate(0.000000,512.000000) scale(0.100000,-0.100000)"
fill="#000000" stroke="none">
<path d="M0 2560 l0 -2560 2560 0 2560 0 0 2560 0 2560 -2560 0 -2560 0 0
-2560z m1750 283 c2 -2 -2 -23 -10 -46 -19 -55 -52 -62 -75 -18 -8 17 -20 31
-25 31 -5 0 -19 -33 -30 -72 -12 -40 -26 -88 -31 -105 -6 -18 -9 -45 -7 -60 3
-28 2 -28 -70 -37 -83 -10 -108 0 -79 32 9 10 30 61 46 114 15 53 31 101 35
107 15 24 -22 10 -49 -19 -54 -56 -93 -22 -61 53 l14 36 169 -6 c92 -3 170 -8
173 -10z m1820 2 c36 -18 60 -62 60 -107 0 -49 -42 -130 -85 -166 -100 -81
-265 -49 -265 53 0 47 25 122 54 159 51 67 167 97 236 61z m-1630 1 c0 -3 -7
-12 -16 -21 -9 -9 -22 -36 -30 -60 l-13 -45 43 0 c43 0 44 0 55 46 7 25 9 54
6 65 -6 18 0 19 74 19 45 0 81 -3 81 -7 0 -3 -7 -14 -15 -23 -22 -25 -77 -220
-71 -252 l6 -28 -80 0 c-73 0 -97 9 -69 25 11 7 22 33 33 78 6 26 5 27 -34 27
-35 0 -42 -4 -51 -27 -6 -16 -11 -45 -11 -65 l-1 -38 -78 0 c-76 0 -97 9 -64
27 18 10 75 202 75 250 l0 33 80 0 c44 0 80 -2 80 -4z m506 -10 c3 -7 1 -29
-3 -47 -13 -47 -49 -53 -64 -10 -9 26 -16 31 -43 31 -29 0 -33 -4 -43 -40 -12
-46 -5 -56 23 -35 23 17 54 19 54 4 0 -7 -5 -29 -12 -50 -12 -42 -39 -53 -56
-22 -13 23 -38 10 -45 -24 -3 -15 -9 -36 -12 -45 -13 -32 47 -23 80 12 16 17
39 30 53 30 26 0 26 -12 2 -75 l-10 -25 -140 0 c-77 0 -140 3 -140 7 0 3 7 14
15 23 17 19 76 214 74 245 -1 11 -1 23 0 28 1 4 60 7 131 7 102 0 132 -3 136
-14z m204 7 c0 -3 -6 -14 -14 -22 -20 -23 -76 -233 -69 -259 5 -21 3 -22 -76
-22 -44 0 -81 3 -81 7 0 3 7 14 15 23 17 19 76 214 74 245 -1 11 -1 23 0 28 1
9 151 10 151 0z m192 -75 l42 -83 17 55 c10 30 16 67 13 83 -6 27 -5 27 45 27
51 0 65 -11 36 -27 -9 -5 -31 -65 -52 -137 -55 -192 -93 -204 -164 -50 -21 46
-41 84 -43 84 -11 0 -45 -137 -40 -158 6 -20 3 -22 -40 -22 -51 0 -52 1 -32
33 21 31 69 206 68 245 l-1 32 54 0 55 0 42 -82z m464 68 c3 -7 1 -29 -3 -47
-7 -26 -15 -35 -35 -37 -21 -3 -28 3 -37 28 -9 26 -15 31 -37 28 -22 -2 -30
-11 -42 -46 -8 -24 -12 -46 -9 -49 3 -3 20 5 36 17 38 26 55 18 48 -24 -13
-79 -44 -109 -67 -66 -6 11 -17 20 -24 20 -18 0 -38 -68 -26 -91 6 -10 10 -20
10 -23 0 -3 -38 -6 -85 -6 -47 0 -85 2 -85 5 0 3 9 18 19 33 22 30 73 203 70
236 0 11 -1 24 0 29 1 4 60 7 131 7 102 0 132 -3 136 -14z m-1373 -574 c9 13
16 18 16 12 1 -6 -6 -17 -14 -24 -8 -7 -15 -22 -16 -34 0 -14 -2 -16 -6 -6 -3
8 -15 29 -26 45 l-21 30 26 -23 25 -23 16 23z m161 -4 c14 -22 -2 -52 -30 -55
-14 -2 -13 0 4 7 17 7 22 17 20 32 -3 20 -9 23 -43 23 -31 0 -41 -4 -43 -19
-2 -11 4 -26 14 -33 10 -7 13 -13 8 -13 -30 0 -44 46 -22 68 18 18 79 11 92
-10z m68 -49 c9 -6 9 -9 1 -9 -16 0 -33 33 -32 62 1 17 3 14 9 -11 4 -18 14
-37 22 -42z m183 61 c4 -6 1 -17 -5 -25 -10 -12 -10 -18 0 -30 7 -9 8 -15 2
-15 -5 0 -12 7 -16 15 -8 21 -53 19 -59 -2 -3 -10 -5 1 -6 25 l-1 42 39 0 c22
0 43 -5 46 -10z m147 3 c-24 -3 -32 -8 -28 -19 3 -8 1 -24 -4 -36 -7 -19 -9
-16 -9 20 l-1 42 38 -2 37 -1 -33 -4z m153 -3 c4 -6 1 -17 -5 -25 -10 -12 -10
-18 0 -30 7 -9 8 -15 2 -15 -5 0 -12 7 -16 15 -8 21 -53 19 -59 -2 -3 -10 -5
1 -6 25 l-1 42 39 0 c22 0 43 -5 46 -10z m52 -52 c-2 -13 -4 -3 -4 22 0 25 2
35 4 23 2 -13 2 -33 0 -45z m81 55 c-47 -5 -50 -23 -5 -24 l32 -1 -29 -7 c-44
-9 -44 -29 1 -34 l38 -4 -42 -1 -43 -2 0 40 0 40 43 -2 42 -1 -37 -4z m110
-23 c29 -38 40 -38 45 3 3 28 4 26 5 -10 1 -24 -2 -43 -6 -43 -5 0 -21 14 -38
31 l-29 31 -6 -34 c-6 -32 -6 -32 -8 10 -1 50 7 53 37 12z m176 8 c18 -29 -4
-53 -53 -56 l-41 -3 0 41 0 41 41 -3 c27 -2 46 -9 53 -20z m-848 -44 c-3 -8
-11 -14 -18 -13 -10 0 -10 2 0 6 6 2 13 19 13 36 1 25 3 27 6 9 3 -13 2 -30
-1 -38z"/>
<path d="M3445 2773 c-24 -50 -48 -174 -36 -186 6 -6 16 -7 24 -4 17 7 67 131
74 187 5 37 4 40 -20 40 -19 0 -29 -9 -42 -37z"/>
<path d="M2270 2254 c0 -11 8 -14 32 -12 46 4 49 28 4 28 -26 0 -36 -4 -36
-16z"/>
<path d="M2570 2255 c0 -12 8 -16 33 -13 17 2 32 8 32 13 0 6 -15 11 -32 13
-25 3 -33 -1 -33 -13z"/>
<path d="M2980 2240 c0 -30 2 -31 38 -28 32 3 37 6 37 28 0 22 -5 25 -37 28
-36 3 -38 2 -38 -28z"/>
</g>
</svg>
